<svg xmlns="http://www.w3.org/2000/svg" viewBox="0 0 200 46" fill="currentColor" role="img" aria-label="Barefoot.js">
<path d="M199.488 22.2273L197.636 22.75C197.454 22.2273 197.196 21.7538 196.863 21.3296C196.53 20.9053 196.094 20.5682 195.556 20.3182C195.026 20.0682 194.367 19.9432 193.579 19.9432C192.397 19.9432 191.427 20.2235 190.67 20.7841C189.912 21.3447 189.534 22.0682 189.534 22.9546C189.534 23.7046 189.791 24.3144 190.306 24.7841C190.829 25.2462 191.632 25.6137 192.715 25.8864L195.352 26.5341C196.814 26.8902 197.909 27.4546 198.636 28.2273C199.371 29 199.738 29.9697 199.738 31.1364C199.738 32.1212 199.465 32.9962 198.92 33.7614C198.374 34.5265 197.613 35.1288 196.636 35.5682C195.666 36 194.541 36.2159 193.261 36.2159C191.556 36.2159 190.151 35.8334 189.045 35.0682C187.939 34.2955 187.23 33.1818 186.92 31.7273L188.863 31.25C189.113 32.2879 189.602 33.072 190.329 33.6023C191.064 34.1326 192.03 34.3978 193.227 34.3978C194.568 34.3978 195.64 34.0985 196.443 33.5C197.246 32.894 197.647 32.1364 197.647 31.2273C197.647 30.5228 197.412 29.9318 196.943 29.4546C196.473 28.9697 195.761 28.6137 194.806 28.3864L191.954 27.7046C190.439 27.3409 189.318 26.7652 188.59 25.9773C187.863 25.1894 187.499 24.2121 187.499 23.0455C187.499 22.0834 187.761 21.2387 188.284 20.5114C188.806 19.7765 189.526 19.2008 190.443 18.7841C191.359 18.3675 192.405 18.1591 193.579 18.1591C195.177 18.1591 196.454 18.5228 197.409 19.25C198.371 19.9697 199.064 20.9621 199.488 22.2273Z"/>
<path d="M181.337 18.3977H183.371V37.5455C183.371 38.5379 183.186 39.394 182.815 40.1136C182.451 40.8409 181.921 41.4015 181.224 41.7955C180.527 42.197 179.686 42.3977 178.701 42.3977C178.625 42.3977 178.549 42.3977 178.474 42.3977C178.398 42.3977 178.315 42.394 178.224 42.3864L178.246 40.4886C178.322 40.4886 178.394 40.4886 178.462 40.4886C178.53 40.4886 178.602 40.4886 178.678 40.4886C179.512 40.4886 180.163 40.2311 180.633 39.7159C181.102 39.2008 181.337 38.4773 181.337 37.5455V18.3977ZM182.337 15.3977C181.928 15.3977 181.572 15.2576 181.269 14.9773C180.974 14.6894 180.826 14.3447 180.826 13.9432C180.826 13.5417 180.974 13.2008 181.269 12.9205C181.572 12.6326 181.928 12.4886 182.337 12.4886C182.754 12.4886 183.11 12.6326 183.405 12.9205C183.708 13.2008 183.86 13.5417 183.86 13.9432C183.86 14.3447 183.708 14.6894 183.405 14.9773C183.11 15.2576 182.754 15.3977 182.337 15.3977Z"/>
<path d="M175.294 36.0228C174.847 36.0228 174.461 35.8637 174.135 35.5455C173.817 35.2197 173.658 34.8334 173.658 34.3864C173.658 33.9318 173.817 33.5455 174.135 33.2273C174.461 32.9091 174.847 32.75 175.294 32.75C175.749 32.75 176.135 32.9091 176.454 33.2273C176.772 33.5455 176.931 33.9318 176.931 34.3864C176.931 34.6818 176.855 34.9546 176.704 35.2046C176.56 35.4546 176.363 35.6553 176.113 35.8068C175.87 35.9508 175.597 36.0228 175.294 36.0228Z"/>
<path d="M170.047 18.3978V20.1591H161.717V18.3978H170.047ZM164.32 14.2159H166.354V31.2955C166.354 32.0228 166.479 32.5947 166.729 33.0114C166.979 33.4205 167.305 33.7122 167.706 33.8864C168.108 34.0531 168.536 34.1364 168.99 34.1364C169.255 34.1364 169.483 34.1212 169.672 34.0909C169.861 34.0531 170.028 34.0152 170.172 33.9773L170.604 35.8069C170.407 35.8826 170.164 35.9508 169.877 36.0114C169.589 36.0796 169.233 36.1137 168.808 36.1137C168.066 36.1137 167.35 35.9508 166.661 35.625C165.979 35.2993 165.418 34.8144 164.979 34.1705C164.539 33.5265 164.32 32.7273 164.32 31.7728V14.2159Z"/>
<path d="M152.01 36.2159C150.502 36.2159 149.169 35.8334 148.01 35.0682C146.858 34.3031 145.957 33.2462 145.305 31.8978C144.654 30.5417 144.328 28.9773 144.328 27.2046C144.328 25.4167 144.654 23.8447 145.305 22.4887C145.957 21.125 146.858 20.0644 148.01 19.3068C149.169 18.5417 150.502 18.1591 152.01 18.1591C153.517 18.1591 154.847 18.5417 155.999 19.3068C157.15 20.072 158.052 21.1326 158.703 22.4887C159.362 23.8447 159.692 25.4167 159.692 27.2046C159.692 28.9773 159.366 30.5417 158.714 31.8978C158.063 33.2462 157.158 34.3031 155.999 35.0682C154.847 35.8334 153.517 36.2159 152.01 36.2159ZM152.01 34.3637C153.222 34.3637 154.249 34.0379 155.089 33.3864C155.93 32.7349 156.567 31.8675 156.999 30.7841C157.438 29.7008 157.658 28.5076 157.658 27.2046C157.658 25.9015 157.438 24.7046 156.999 23.6137C156.567 22.5228 155.93 21.6478 155.089 20.9887C154.249 20.3296 153.222 20 152.01 20C150.805 20 149.779 20.3296 148.93 20.9887C148.089 21.6478 147.449 22.5228 147.01 23.6137C146.578 24.7046 146.362 25.9015 146.362 27.2046C146.362 28.5076 146.578 29.7008 147.01 30.7841C147.449 31.8675 148.089 32.7349 148.93 33.3864C149.771 34.0379 150.798 34.3637 152.01 34.3637Z"/>
<path d="M134.064 36.2159C132.556 36.2159 131.223 35.8334 130.064 35.0682C128.912 34.3031 128.011 33.2462 127.359 31.8978C126.708 30.5417 126.382 28.9773 126.382 27.2046C126.382 25.4167 126.708 23.8447 127.359 22.4887C128.011 21.125 128.912 20.0644 130.064 19.3068C131.223 18.5417 132.556 18.1591 134.064 18.1591C135.571 18.1591 136.901 18.5417 138.052 19.3068C139.204 20.072 140.105 21.1326 140.757 22.4887C141.416 23.8447 141.745 25.4167 141.745 27.2046C141.745 28.9773 141.42 30.5417 140.768 31.8978C140.117 33.2462 139.211 34.3031 138.052 35.0682C136.901 35.8334 135.571 36.2159 134.064 36.2159ZM134.064 34.3637C135.276 34.3637 136.302 34.0379 137.143 33.3864C137.984 32.7349 138.62 31.8675 139.052 30.7841C139.492 29.7008 139.711 28.5076 139.711 27.2046C139.711 25.9015 139.492 24.7046 139.052 23.6137C138.62 22.5228 137.984 21.6478 137.143 20.9887C136.302 20.3296 135.276 20 134.064 20C132.859 20 131.833 20.3296 130.984 20.9887C130.143 21.6478 129.503 22.5228 129.064 23.6137C128.632 24.7046 128.416 25.9015 128.416 27.2046C128.416 28.5076 128.632 29.7008 129.064 30.7841C129.503 31.8675 130.143 32.7349 130.984 33.3864C131.825 34.0379 132.852 34.3637 134.064 34.3637Z"/>
<path d="M124.921 18.3977V20.1591H116.342V18.3977H124.921ZM119.024 35.8523V15.8409C119.024 14.9015 119.24 14.1098 119.671 13.4659C120.111 12.822 120.683 12.3333 121.387 12C122.092 11.6667 122.838 11.5 123.626 11.5C124.156 11.5 124.596 11.5455 124.944 11.6364C125.3 11.7197 125.58 11.803 125.785 11.8864L125.194 13.6591C125.043 13.6136 124.857 13.5606 124.637 13.5C124.418 13.4394 124.141 13.4091 123.808 13.4091C122.929 13.4091 122.251 13.6553 121.774 14.1477C121.296 14.6402 121.058 15.3447 121.058 16.2614L121.046 35.8523H119.024Z"/>
<path d="M107.163 36.2159C105.534 36.2159 104.125 35.8371 102.935 35.0796C101.746 34.3144 100.825 33.2576 100.174 31.9091C99.53 30.5531 99.2081 28.9925 99.2081 27.2273C99.2081 25.4697 99.53 23.9091 100.174 22.5455C100.825 21.1743 101.723 20.1023 102.867 19.3296C104.019 18.5493 105.348 18.1591 106.856 18.1591C107.803 18.1591 108.716 18.3334 109.594 18.6818C110.473 19.0228 111.261 19.5493 111.958 20.2614C112.663 20.9659 113.219 21.8561 113.629 22.9318C114.038 24 114.242 25.2652 114.242 26.7273V27.7273H100.606V25.9432H112.174C112.174 24.822 111.947 23.8144 111.492 22.9205C111.045 22.019 110.42 21.3068 109.617 20.7841C108.822 20.2614 107.901 20 106.856 20C105.75 20 104.776 20.2955 103.935 20.8864C103.094 21.4773 102.435 22.2576 101.958 23.2273C101.488 24.197 101.25 25.2576 101.242 26.4091V27.4773C101.242 28.8637 101.481 30.0758 101.958 31.1137C102.443 32.144 103.129 32.9432 104.015 33.5114C104.901 34.0796 105.95 34.3637 107.163 34.3637C107.988 34.3637 108.712 34.2349 109.333 33.9773C109.962 33.7197 110.488 33.375 110.913 32.9432C111.344 32.5038 111.67 32.0228 111.89 31.5L113.81 32.125C113.545 32.8599 113.11 33.5379 112.504 34.1591C111.905 34.7803 111.155 35.2803 110.254 35.6591C109.36 36.0303 108.329 36.2159 107.163 36.2159Z"/>
<path d="M90.1908 35.8523V18.3978H92.1567V21.0796H92.3044C92.6529 20.2008 93.259 19.4925 94.1226 18.9546C94.9938 18.4091 95.9787 18.1364 97.0772 18.1364C97.2438 18.1364 97.4294 18.1402 97.634 18.1478C97.8385 18.1554 98.009 18.1629 98.1453 18.1705V20.2273C98.0544 20.2122 97.8953 20.1894 97.6681 20.1591C97.4408 20.1288 97.1946 20.1137 96.9294 20.1137C96.0203 20.1137 95.2097 20.3069 94.4976 20.6932C93.7931 21.072 93.2363 21.5985 92.8272 22.2728C92.4181 22.947 92.2135 23.716 92.2135 24.5796V35.8523H90.1908Z"/>
<path d="M78.2133 36.25C77.1603 36.25 76.1981 36.0455 75.3269 35.6364C74.4557 35.2197 73.7625 34.6212 73.2474 33.8409C72.7322 33.0531 72.4747 32.0985 72.4747 30.9773C72.4747 30.1137 72.6375 29.3864 72.9633 28.7955C73.289 28.2046 73.7512 27.7197 74.3497 27.3409C74.9481 26.9621 75.6565 26.6629 76.4747 26.4432C77.2928 26.2235 78.1944 26.0531 79.1792 25.9318C80.1565 25.8106 80.9822 25.7046 81.6565 25.6137C82.3383 25.5228 82.8572 25.3788 83.2133 25.1818C83.5694 24.9849 83.7474 24.6667 83.7474 24.2273V23.8182C83.7474 22.6288 83.3913 21.6932 82.6792 21.0114C81.9747 20.322 80.9595 19.9773 79.6337 19.9773C78.3762 19.9773 77.3497 20.2538 76.5542 20.8068C75.7663 21.3599 75.2133 22.0114 74.8951 22.7614L72.9747 22.0682C73.3686 21.1137 73.914 20.3523 74.611 19.7841C75.308 19.2084 76.0883 18.7955 76.9519 18.5455C77.8156 18.2879 78.6906 18.1591 79.5769 18.1591C80.2436 18.1591 80.9368 18.2462 81.6565 18.4205C82.3837 18.5947 83.058 18.8978 83.6792 19.3296C84.3004 19.7538 84.8042 20.3485 85.1906 21.1137C85.5769 21.8712 85.7701 22.8334 85.7701 24V35.8523H83.7474V33.0909H83.6224C83.38 33.6061 83.0201 34.1061 82.5428 34.5909C82.0656 35.0758 81.4671 35.4735 80.7474 35.7841C80.0277 36.0947 79.183 36.25 78.2133 36.25ZM78.486 34.3978C79.5618 34.3978 80.4936 34.1591 81.2815 33.6818C82.0694 33.2046 82.6754 32.572 83.0997 31.7841C83.5315 30.9887 83.7474 30.1137 83.7474 29.1591V26.6364C83.5959 26.7803 83.3421 26.9091 82.986 27.0228C82.6375 27.1364 82.2322 27.2387 81.7701 27.3296C81.3156 27.4129 80.861 27.4849 80.4065 27.5455C79.9519 27.6061 79.5428 27.6591 79.1792 27.7046C78.1944 27.8258 77.3534 28.0152 76.6565 28.2728C75.9595 28.5303 75.4254 28.8864 75.0542 29.3409C74.683 29.7879 74.4974 30.3637 74.4974 31.0682C74.4974 32.1288 74.8762 32.9508 75.6337 33.5341C76.3913 34.1099 77.3421 34.3978 78.486 34.3978Z"/>
<path d="M54 35.8523V12.5796H61.8523C63.3674 12.5796 64.6288 12.8447 65.6364 13.375C66.6515 13.9053 67.4129 14.6288 67.9205 15.5455C68.428 16.4622 68.6818 17.5038 68.6818 18.6705C68.6818 19.6402 68.5189 20.4697 68.1932 21.1591C67.8674 21.8485 67.4242 22.4053 66.8636 22.8296C66.303 23.2538 65.678 23.5607 64.9886 23.75V23.9319C65.7386 23.9849 66.4659 24.25 67.1705 24.7273C67.875 25.197 68.4545 25.8561 68.9091 26.7046C69.3636 27.5531 69.5909 28.5682 69.5909 29.75C69.5909 30.9243 69.3295 31.9735 68.8068 32.8978C68.2841 33.8144 67.4811 34.5379 66.3977 35.0682C65.322 35.591 63.9508 35.8523 62.2841 35.8523H54ZM56.125 33.9432H62.2841C64.0795 33.9432 65.4053 33.5455 66.2614 32.75C67.125 31.9546 67.5568 30.9546 67.5568 29.75C67.5568 28.8637 67.3409 28.0607 66.9091 27.341C66.4848 26.6137 65.8826 26.0379 65.1023 25.6137C64.3295 25.1894 63.4205 24.9773 62.375 24.9773H56.125V33.9432ZM56.125 23.091H62.0455C62.9621 23.091 63.7652 22.9016 64.4545 22.5228C65.1439 22.144 65.6818 21.6213 66.0682 20.9546C66.4545 20.2879 66.6477 19.5266 66.6477 18.6705C66.6477 17.4357 66.2462 16.4319 65.4432 15.6591C64.6402 14.8788 63.4432 14.4887 61.8523 14.4887H56.125V23.091Z"/>
<path d="M8.5495 25.7868C10.758 25.195 11.9088 22.3281 11.1197 19.3833C10.3307 16.4386 7.9006 14.5312 5.6921 15.1229C3.4836 15.7147 2.3328 18.5816 3.1218 21.5264C3.9109 24.4711 6.3409 26.3785 8.5495 25.7868Z"/>
<path d="M17.48 23.74C19.2411 23.4925 20.382 21.2524 20.0285 18.7366C19.6749 16.2208 17.9607 14.382 16.1996 14.6295C14.4386 14.877 13.2976 17.1171 13.6511 19.6329C14.0047 22.1487 15.719 23.9875 17.48 23.74Z"/>
<path d="M24.84 25.12C26.3643 25.12 27.6 23.2665 27.6 20.98C27.6 18.6935 26.3643 16.84 24.84 16.84C23.3157 16.84 22.08 18.6935 22.08 20.98C22.08 23.2665 23.3157 25.12 24.84 25.12Z"/>
<path d="M31.4721 27.8934C32.6042 28.0525 33.7226 26.7539 33.9701 24.9929C34.2176 23.2318 33.5004 21.6752 32.3683 21.5161C31.2362 21.357 30.1178 22.6556 29.8703 24.4167C29.6228 26.1777 30.34 27.7343 31.4721 27.8934Z"/>
<path d="M36.5024 32.2108C37.3612 32.4409 38.3507 31.5334 38.7123 30.1837C39.0739 28.834 38.6709 27.5534 37.812 27.3232C36.9531 27.0931 35.9637 28.0006 35.602 29.3503C35.2404 30.7 35.6435 31.9807 36.5024 32.2108Z"/>
</svg>
